<svg width="63" height="93" viewBox="0 0 63 93" fill="none" xmlns="http://www.w3.org/2000/svg">
<g opacity="0.15">
<path d="M39.4106 59.8545C39.4106 58.6334 38.9131 57.4623 38.0275 56.5989C37.1419 55.7354 35.9408 55.2504 34.6884 55.2504H6.35503C3.75309 55.2504 1.63281 57.313 1.63281 59.8545V69.0629H39.4106V59.8545ZM1.63281 78.2712H39.4106V92.0837H1.63281V78.2712Z" fill="#55828B"/>
<path d="M63 46.0417C63 32.3811 52.7669 21.0318 39.3889 18.831V13.8125C39.3889 6.19721 33.0328 0 25.2222 0H15.7778C7.96722 0 1.61111 6.19721 1.61111 13.8125V18.831C-11.7669 21.0318 -22 32.3811 -22 46.0417V82.875C-22 87.9534 -17.7642 92.0833 -12.5556 92.0833H-7.83333V59.8542C-7.83333 52.2389 -1.47722 46.0417 6.33333 46.0417H34.6667C42.4772 46.0417 48.8333 52.2389 48.8333 59.8542V92.0833H53.5556C58.7642 92.0833 63 87.9534 63 82.875V46.0417ZM11.0556 13.8125C11.0556 11.271 13.1758 9.20833 15.7778 9.20833H25.2222C26.4746 9.20833 27.6758 9.69341 28.5613 10.5569C29.4469 11.4203 29.9444 12.5914 29.9444 13.8125V18.4167H11.0556V13.8125Z" fill="#55828B"/>
</g>
</svg>
