<svg width="79" height="96" viewBox="0 0 79 96" fill="none" xmlns="http://www.w3.org/2000/svg">
<g opacity="0.15">
<path d="M11.2984 28.1663C11.2984 27.2953 10.9508 26.4599 10.3319 25.844C9.71302 25.2281 8.87365 24.8821 7.99844 24.8821H-11.8016C-13.6199 24.8821 -15.1016 26.3534 -15.1016 28.1663V34.7348H11.2984V28.1663ZM-15.1016 41.3033H11.2984V51.1561H-15.1016V41.3033Z" fill="#55828B"/>
<path d="M74.05 0H39.4C35.7349 0.0126713 32.2057 1.41761 29.5 3.9411C26.7943 1.41761 23.2651 0.0126713 19.6 0H-15.05C-16.3628 0 -17.6219 0.532336 -18.5502 1.4799C-19.4785 2.42747 -20 3.71264 -20 5.0527V80.8432C-20 82.1832 -19.4785 83.4684 -18.5502 84.416C-17.6219 85.3635 -16.3628 85.8959 -15.05 85.8959H13.4521C16.0765 85.9019 18.5922 86.9662 20.4514 88.8567L26.0004 94.5208C26.0449 94.5663 26.1043 94.5815 26.1488 94.6269C26.5745 95.0311 27.0497 95.3848 27.6041 95.6172H27.6141C28.8216 96.1276 30.1783 96.1276 31.3859 95.6172H31.3959C31.9502 95.3848 32.4254 95.0261 32.8511 94.6269C32.8957 94.5815 32.9551 94.5663 32.9996 94.5208L38.5486 88.8567C40.4078 86.9662 42.9235 85.9019 45.5479 85.8959H74.05C75.3628 85.8959 76.6219 85.3635 77.5502 84.416C78.4785 83.4684 79 82.1832 79 80.8432V5.0527C79 3.71264 78.4785 2.42747 77.5502 1.4799C76.6219 0.532336 75.3628 0 74.05 0ZM69.1 75.7905H45.5479C41.5923 75.8021 37.7293 77.0139 34.45 79.2718V15.1581C34.45 12.3741 36.6676 10.1054 39.4 10.1054H69.1V75.7905Z" fill="#55828B"/>
</g>
</svg>
