<svg width="38" height="32" viewBox="0 0 38 32" fill="none" xmlns="http://www.w3.org/2000/svg">
  <path d="M20.3748 0.523635C20.2015 0.358707 19.9902 0.22693 19.7545 0.136756C19.5188 0.0465811 19.264 0 19.0063 0C18.7486 0 18.4937 0.0465811 18.258 0.136756C18.0224 0.22693 17.8111 0.358707 17.6377 0.523635L0.99343 16.5177C0.747995 16.7466 0.585355 17.0325 0.525559 17.3404C0.465763 17.6482 0.511423 17.9644 0.656912 18.2501C0.802401 18.5357 1.04136 18.7783 1.34433 18.948C1.6473 19.1176 2.00105 19.2069 2.36196 19.2047H6.0607V30.4006C6.0607 30.8248 6.25554 31.2316 6.60237 31.5315C6.94919 31.8315 7.41958 32 7.91007 32H30.1025C30.593 32 31.0634 31.8315 31.4102 31.5315C31.757 31.2316 31.9518 30.8248 31.9518 30.4006V19.2047H35.6506C36.1411 19.2047 36.6115 19.0362 36.9583 18.7363C37.3051 18.4363 37.5 18.0295 37.5 17.6053C37.5034 17.2034 37.3317 16.8151 37.0191 16.5177L20.3748 0.523635Z" fill="currentColor"/>
</svg>
